<svg xmlns="http://www.w3.org/2000/svg" viewBox="0 0 20 20" fill="currentColor">
  <path d="M10 1.25c-4.97 0-9 4.03-9 9 0 3.978 2.584 7.348 6.17 8.541.45.084.615-.195.615-.433 0-.214-.008-.78-.012-1.531-2.51.545-3.037-1.21-3.037-1.21-.41-1.041-1-1.318-1-1.318-.817-.56.063-.549.063-.549.905.064 1.38.93 1.38.93.803 1.378 2.107.98 2.622.75.083-.582.314-.98.57-1.205-2.005-.23-4.112-1.003-4.112-4.464 0-.986.354-1.792.934-2.423-.095-.23-.405-1.153.088-2.404 0 0 .76-.243 2.49.925A8.677 8.677 0 0 1 10 5.844c.77.004 1.545.104 2.27.304 1.73-1.168 2.488-.925 2.488-.925.495 1.251.185 2.174.09 2.404.582.63.933 1.437.933 2.423 0 3.47-2.11 4.232-4.12 4.457.324.278.61.823.61 1.659 0 1.196-.01 2.16-.01 2.452 0 .24.162.52.62.432A9.003 9.003 0 0 0 19 10.25c0-4.97-4.03-9-9-9Z"/>
</svg>
